<svg width="24" height="17" viewBox="0 0 24 17" fill="none" xmlns="http://www.w3.org/2000/svg">
<mask id="mask0_328_641" style="mask-type:alpha" maskUnits="userSpaceOnUse" x="0" y="0" width="24" height="17">
<path d="M21.7143 0H2.28571C1.02335 0 0 1.01482 0 2.26667V14.7333C0 15.9852 1.02335 17 2.28571 17H21.7143C22.9767 17 24 15.9852 24 14.7333V2.26667C24 1.01482 22.9767 0 21.7143 0Z" fill="white"/>
</mask>
<g mask="url(#mask0_328_641)">
<path d="M21.7143 0H2.28571C1.02335 0 0 1.01482 0 2.26667V14.7333C0 15.9852 1.02335 17 2.28571 17H21.7143C22.9767 17 24 15.9852 24 14.7333V2.26667C24 1.01482 22.9767 0 21.7143 0Z" fill="white"/>
<path fill-rule="evenodd" clip-rule="evenodd" d="M0 0H10.2857V7.93333H0V0Z" fill="#444379"/>
<path fill-rule="evenodd" clip-rule="evenodd" d="M1.14282 1.13333V2.26667H2.28568V1.13333H1.14282ZM3.42854 1.13333V2.26667H4.57139V1.13333H3.42854ZM5.71425 1.13333V2.26667H6.85711V1.13333H5.71425ZM7.99997 1.13333V2.26667H9.14282V1.13333H7.99997ZM6.85711 2.26667V3.4H7.99997V2.26667H6.85711ZM4.57139 2.26667V3.4H5.71425V2.26667H4.57139ZM2.28568 2.26667V3.4H3.42854V2.26667H2.28568ZM1.14282 3.4V4.53333H2.28568V3.4H1.14282ZM3.42854 3.4V4.53333H4.57139V3.4H3.42854ZM5.71425 3.4V4.53333H6.85711V3.4H5.71425ZM7.99997 3.4V4.53333H9.14282V3.4H7.99997ZM1.14282 5.66667V6.8H2.28568V5.66667H1.14282ZM3.42854 5.66667V6.8H4.57139V5.66667H3.42854ZM5.71425 5.66667V6.8H6.85711V5.66667H5.71425ZM7.99997 5.66667V6.8H9.14282V5.66667H7.99997ZM6.85711 4.53333V5.66667H7.99997V4.53333H6.85711ZM4.57139 4.53333V5.66667H5.71425V4.53333H4.57139ZM2.28568 4.53333V5.66667H3.42854V4.53333H2.28568Z" fill="#A7B6E7"/>
<path fill-rule="evenodd" clip-rule="evenodd" d="M10.2857 0V1.13333H24V0H10.2857ZM10.2857 2.26667V3.4H24V2.26667H10.2857ZM10.2857 4.53333V5.66667H24V4.53333H10.2857ZM10.2857 6.8V7.93333H24V6.8H10.2857ZM0 9.06667V10.2H24V9.06667H0ZM0 11.3333V12.4667H24V11.3333H0ZM0 13.6V14.7333H24V13.6H0ZM0 15.8667V17H24V15.8667H0Z" fill="#ED4C49"/>
<path d="M21.7144 0.566668H2.28582C1.33905 0.566668 0.571533 1.32778 0.571533 2.26667V14.7333C0.571533 15.6722 1.33905 16.4333 2.28582 16.4333H21.7144C22.6612 16.4333 23.4287 15.6722 23.4287 14.7333V2.26667C23.4287 1.32778 22.6612 0.566668 21.7144 0.566668Z" stroke="black" stroke-opacity="0.1"/>
</g>
</svg>
