<svg width="16" height="16" viewBox="0 0 16 16" fill="none" xmlns="http://www.w3.org/2000/svg">
<g clip-path="url(#clip0_163_2206)">
<path fill-rule="evenodd" clip-rule="evenodd" d="M7.99998 15.3333C12.05 15.3333 15.3333 12.05 15.3333 8C15.3333 3.95 12.05 0.666662 7.99998 0.666662C3.94998 0.666661 0.666648 3.94999 0.666648 7.99999C0.666647 12.05 3.94998 15.3333 7.99998 15.3333ZM10.1953 9.47133C10.321 9.59277 10.4894 9.65996 10.6642 9.65844C10.839 9.65693 11.0063 9.58681 11.1299 9.46321C11.2535 9.3396 11.3236 9.17239 11.3251 8.9976C11.3266 8.8228 11.2594 8.6544 11.138 8.52866L8.47131 5.862C8.3463 5.73701 8.17676 5.6668 7.99998 5.6668C7.8232 5.6668 7.65367 5.73701 7.52865 5.86199L4.86198 8.52866C4.74054 8.6544 4.67335 8.8228 4.67486 8.99759C4.67638 9.17239 4.7465 9.3396 4.8701 9.46321C4.99371 9.58681 5.16092 9.65692 5.33571 9.65844C5.51051 9.65996 5.67891 9.59277 5.80465 9.47133L7.99998 7.27599L10.1953 9.47133Z" fill="#FF7A2E"/>
</g>
<defs>
<clipPath id="clip0_163_2206">
<rect width="16" height="16" fill="white" transform="translate(16 16) rotate(-180)"/>
</clipPath>
</defs>
</svg>
