<svg width="207" height="38" viewBox="0 0 207 38" fill="none" xmlns="http://www.w3.org/2000/svg">
<path fill-rule="evenodd" clip-rule="evenodd" d="M127.439 0.176548C124.428 0.710064 121.857 2.02836 120.172 3.90214C119.237 4.94224 118.677 5.93344 118.189 7.40912C117.679 8.95656 117.611 11.542 118.044 12.9715C119.205 16.7997 121.942 18.8578 128.944 21.1644C134.991 23.1566 137.093 24.7125 137.093 27.1941C137.093 29.4333 135.372 30.7557 132.244 30.9191C128.301 31.1249 126.012 29.6108 125.491 26.4508L125.314 25.3835L121.547 25.4237L117.779 25.4638L117.82 26.3517C117.952 29.1828 119.511 32.135 121.889 34.054C125.072 36.6231 129.97 37.772 134.686 37.0557C139.731 36.2896 143.309 33.6173 144.551 29.6883C145.617 26.3177 144.985 23.4187 142.648 20.958C140.451 18.645 137.881 17.2908 132.204 15.4534C128.667 14.3087 126.964 13.2891 126.115 11.808C125.739 11.1522 125.663 10.8538 125.662 10.0281C125.658 7.64202 127.411 6.2807 130.486 6.2807C132.577 6.2807 134.464 7.039 135.43 8.26717C135.926 8.89758 136.334 9.91571 136.338 10.5311L136.341 11.0953H140.177H144.013L144.011 10.4558C144.003 8.03396 142.374 5.00648 140.061 3.1151C138.814 2.09591 136.455 0.953954 134.608 0.475655C132.745 -0.0065563 129.287 -0.150995 127.439 0.176548ZM20.6547 12.1861C20.6541 19.5223 20.5957 24.1695 20.4968 24.7868C20.1476 26.9636 18.9837 28.6109 17.2267 29.4153C16.0008 29.9766 13.7458 30.0717 12.2726 29.6242C11.0223 29.2443 10.0314 28.5239 9.40947 27.5425C8.64631 26.3383 8.4354 25.5014 8.33596 23.2822L8.24495 21.2511L4.1224 21.211L0 21.1709L0.0916155 23.3174C0.199328 25.8403 0.347959 26.7579 0.968658 28.7311C2.46128 33.4762 6.23166 36.4015 11.7802 37.1193C14.2544 37.4395 17.668 37.2122 19.7533 36.5884C23.7898 35.381 26.5139 32.8268 27.8472 28.9995C28.7646 26.3663 28.7795 26.1057 28.7795 12.7238V0.563372H24.7177H20.6559L20.6547 12.1861ZM184.18 18.6959V36.6779L187.978 36.6377L191.777 36.5976L191.815 18.6557L191.853 0.713828H188.017H184.18V18.6959ZM199.261 18.6557L199.299 36.5976L203.097 36.6377L206.896 36.6779V18.6959V0.713828H203.059H199.222L199.261 18.6557ZM98.9854 4.27211C98.929 4.32868 98.8827 5.64743 98.8827 7.20284V10.0308L97.4911 10.074L96.0996 10.1173L96.0587 13.0136L96.0179 15.9099H97.4356H98.8535L98.9195 22.4171C98.9807 28.4325 99.0095 29.0113 99.3004 30.0759C100.302 33.7424 102.916 36.2333 106.623 37.0536C108.538 37.4774 112.328 37.2159 114.115 36.5365L114.528 36.3794V33.3665C114.528 31.7094 114.511 30.3536 114.49 30.3538C114.47 30.3538 114.08 30.497 113.625 30.6722C112.625 31.0573 110.513 31.2146 109.615 30.9708C108.568 30.6863 107.594 29.9235 107.125 29.02L106.705 28.213V22.0614V15.9099H109.488H112.271V12.976V10.0421H109.492H106.712L106.671 7.14582L106.63 4.24954L102.859 4.20937C100.785 4.18725 99.042 4.21554 98.9854 4.27211ZM77.2951 9.59735C74.0391 10.1015 71.0425 11.5758 69.5651 13.4004C67.9532 15.3913 67.5501 18.322 68.5856 20.5235C69.7522 23.0037 72.4166 24.4198 78.3283 25.7012C79.8286 26.0264 81.4695 26.4299 81.975 26.598C84.3161 27.3764 85.3586 28.7141 84.6666 30.0524C84.1138 31.1216 82.6204 31.7091 80.4645 31.7053C77.247 31.6999 75.5198 30.6735 75.0951 28.5148L74.9242 27.6454H71.2115H67.4989L67.6186 28.7626C68.19 34.0971 73.8906 37.611 81.3441 37.2235C86.5504 36.9526 90.6755 34.8739 92.2236 31.7411C92.7754 30.6245 92.79 30.5521 92.79 28.929C92.79 27.3508 92.764 27.2102 92.2975 26.2623C91.1238 23.8779 88.2733 22.3383 83.0108 21.2462C78.0798 20.2231 76.0164 19.0469 76.0164 17.259C76.0164 15.9538 77.2471 15.1344 79.3597 15.0335C82.0756 14.9036 83.4467 15.7338 83.8731 17.7665L84.0516 18.6181H87.7827H91.5139L91.4174 17.753C91.1669 15.5064 90.1805 13.5774 88.5643 12.1732C87.5893 11.3261 85.4292 10.2803 83.8391 9.88532C82.375 9.52167 78.7996 9.36444 77.2951 9.59735ZM161.991 9.54664C156.215 10.3307 151.952 14.1724 150.548 19.8586C150.175 21.3695 150.099 24.4645 150.396 26.0395C151.464 31.6956 155.247 35.6009 160.938 36.9203C162.726 37.335 166.478 37.3028 168.265 36.8574C171.322 36.0956 173.128 35.1126 175.082 33.1475C175.956 32.2688 176.461 31.6009 176.91 30.7298C177.445 29.6942 178.012 28.1693 178.012 27.7685C178.012 27.7008 176.404 27.6468 174.439 27.6484L170.866 27.6515L170.373 28.7015C169.8 29.9209 168.91 30.7248 167.519 31.2777C166.777 31.5731 166.376 31.6226 164.691 31.6273L162.727 31.6325L161.581 31.0659C160.274 30.4198 159.301 29.4527 158.679 28.1812C158.239 27.2812 157.858 25.9734 157.855 25.351L157.854 24.9372H167.88H177.907L177.818 22.9437C177.691 20.1023 177.093 17.9716 175.778 15.6842C175.131 14.5582 172.668 12.1009 171.492 11.4087C170.252 10.679 168.19 9.93798 166.653 9.67002C165.446 9.45938 163.092 9.39709 161.991 9.54664ZM36.4042 10.1399C36.2506 10.2934 36.2903 25.3081 36.4502 27.5702C36.6998 31.1023 37.479 33.2146 39.1462 34.8788C40.845 36.5745 42.5907 37.1818 45.7787 37.1858C47.5898 37.1883 47.9411 37.1445 49.0249 36.7817C50.4871 36.2924 51.8258 35.4536 53.1042 34.2259L54.0527 33.3151V34.9939V36.6728H57.8136H61.5745V23.3574V10.0421H57.8251H54.0756L54.0168 17.3016C53.9613 24.1371 53.9393 24.6285 53.6384 25.7149C53.2325 27.1813 52.8358 27.9548 52.0555 28.8015C51.0411 29.9021 50.472 30.128 48.7122 30.128C47.4484 30.128 47.1086 30.0748 46.5869 29.7958C45.7443 29.345 44.8078 28.2442 44.3922 27.2162C44.0529 26.3768 44.0478 26.268 43.9735 18.2419L43.8983 10.1173L40.2027 10.0772C38.17 10.055 36.4607 10.0833 36.4042 10.1399ZM166.435 15.4809C167.895 16.1532 168.945 17.3427 169.6 19.0648L169.887 19.8217H164.021C160.794 19.8217 158.154 19.7781 158.154 19.7247C158.154 19.4624 159.245 17.4244 159.637 16.9555C160.228 16.2464 161.152 15.6207 162.111 15.2787C163.267 14.8666 165.309 14.9622 166.435 15.4809Z" fill="black"/>
</svg>
