<svg xmlns="http://www.w3.org/2000/svg" viewBox="0 0 596.27 596.27"><defs><style>.cls-1{fill:#ff7a2e;}</style></defs><g id="Слой_2" data-name="Слой 2"><path class="cls-1" d="M362.23,433.27V383.71c23.42,0,41.3-15.43,41.3-39.39,0-20-13.2-31.84-32.36-31.84-21.29,0-35.77,15.1-46.84,44.31-13.2,34.14-39.18,83-93.27,83-57.49,0-91.13-38.08-91.13-86,0-51.86,39.6-92.24,100.08-92.24v49.57c-34.07,0-47.27,18.71-47.27,41.35,0,21.67,12.77,36.11,32.79,36.11,24.27,0,39.18-23.63,51.1-53.5,11.5-29.22,30.66-73.86,91.13-73.86,52.81,0,88.58,34.14,88.58,82.39C456.34,397.49,412.05,433.27,362.23,433.27Z"/><path class="cls-1" d="M267.06,359.41v-203h62.16V344.05"/></g></svg>