<svg width="16" height="16" viewBox="0 0 16 16" fill="none" xmlns="http://www.w3.org/2000/svg">
<path fill-rule="evenodd" clip-rule="evenodd" d="M7.99999 0.666672C3.94999 0.666672 0.666656 3.95001 0.666656 8C0.666656 12.05 3.94999 15.3333 7.99999 15.3333C12.05 15.3333 15.3333 12.05 15.3333 8C15.3333 3.95001 12.05 0.666672 7.99999 0.666672ZM5.80466 6.52867C5.67892 6.40723 5.51052 6.34004 5.33572 6.34156C5.16092 6.34307 4.99372 6.41319 4.87011 6.53679C4.74651 6.6604 4.67639 6.82761 4.67487 7.0024C4.67335 7.1772 4.74055 7.3456 4.86199 7.47134L7.52866 10.138C7.65367 10.263 7.82321 10.3332 7.99999 10.3332C8.17677 10.3332 8.3463 10.263 8.47132 10.138L11.138 7.47134C11.2594 7.3456 11.3266 7.1772 11.3251 7.0024C11.3236 6.82761 11.2535 6.6604 11.1299 6.53679C11.0063 6.41319 10.8391 6.34307 10.6643 6.34156C10.4895 6.34004 10.3211 6.40723 10.1953 6.52867L7.99999 8.724L5.80466 6.52867Z" fill="#FF7A2E"/>
</svg>
