<svg width="16" height="16" viewBox="0 0 16 16" fill="none" xmlns="http://www.w3.org/2000/svg">
<path fill-rule="evenodd" clip-rule="evenodd" d="M7.99984 0.666626C3.94984 0.666626 0.666504 3.94996 0.666504 7.99996C0.666504 12.05 3.94984 15.3333 7.99984 15.3333C12.0498 15.3333 15.3332 12.05 15.3332 7.99996C15.3332 3.94996 12.0498 0.666626 7.99984 0.666626ZM5.8045 6.52863C5.67877 6.40719 5.51037 6.33999 5.33557 6.34151C5.16077 6.34303 4.99356 6.41314 4.86996 6.53675C4.74635 6.66035 4.67624 6.82756 4.67472 7.00236C4.6732 7.17716 4.7404 7.34556 4.86184 7.47129L7.5285 10.138C7.65352 10.2629 7.82306 10.3331 7.99984 10.3331C8.17661 10.3331 8.34615 10.2629 8.47117 10.138L11.1378 7.47129C11.2593 7.34556 11.3265 7.17716 11.325 7.00236C11.3234 6.82756 11.2533 6.66035 11.1297 6.53675C11.0061 6.41314 10.8389 6.34303 10.6641 6.34151C10.4893 6.33999 10.3209 6.40719 10.1952 6.52863L7.99984 8.72396L5.8045 6.52863Z" fill="#FF7A2E"/>
</svg>
