<svg width="20" height="21" viewBox="0 0 20 21" fill="none" xmlns="http://www.w3.org/2000/svg">
<path d="M7.91651 9.24998H9.99984C10.2209 9.24998 10.4328 9.16218 10.5891 9.0059C10.7454 8.84962 10.8332 8.63766 10.8332 8.41664C10.8332 8.19563 10.7454 7.98367 10.5891 7.82739C10.4328 7.67111 10.2209 7.58331 9.99984 7.58331H9.16651V7.16664C9.16651 6.94563 9.07871 6.73367 8.92243 6.57739C8.76615 6.42111 8.55419 6.33331 8.33318 6.33331C8.11216 6.33331 7.9002 6.42111 7.74392 6.57739C7.58764 6.73367 7.49984 6.94563 7.49984 7.16664V7.62498C6.99353 7.72779 6.54348 8.01506 6.23706 8.43103C5.93064 8.847 5.78971 9.36198 5.84163 9.87602C5.89355 10.39 6.13462 10.8664 6.51804 11.2127C6.90145 11.559 7.39986 11.7505 7.91651 11.75H8.74984C8.86035 11.75 8.96633 11.7939 9.04447 11.872C9.12261 11.9502 9.16651 12.0561 9.16651 12.1666C9.16651 12.2771 9.12261 12.3831 9.04447 12.4613C8.96633 12.5394 8.86035 12.5833 8.74984 12.5833H6.66651C6.4455 12.5833 6.23354 12.6711 6.07726 12.8274C5.92098 12.9837 5.83318 13.1956 5.83318 13.4166C5.83318 13.6377 5.92098 13.8496 6.07726 14.0059C6.23354 14.1622 6.4455 14.25 6.66651 14.25H7.49984V14.6666C7.49984 14.8877 7.58764 15.0996 7.74392 15.2559C7.9002 15.4122 8.11216 15.5 8.33318 15.5C8.55419 15.5 8.76615 15.4122 8.92243 15.2559C9.07871 15.0996 9.16651 14.8877 9.16651 14.6666V14.2083C9.67282 14.1055 10.1229 13.8182 10.4293 13.4023C10.7357 12.9863 10.8766 12.4713 10.8247 11.9573C10.7728 11.4432 10.5317 10.9668 10.1483 10.6205C9.7649 10.2743 9.26649 10.0828 8.74984 10.0833H7.91651C7.806 10.0833 7.70002 10.0394 7.62188 9.96127C7.54374 9.88313 7.49984 9.77715 7.49984 9.66664C7.49984 9.55614 7.54374 9.45015 7.62188 9.37201C7.70002 9.29387 7.806 9.24998 7.91651 9.24998ZM17.4998 10.5H14.9998V2.99998C15.0004 2.85313 14.9622 2.70875 14.889 2.58143C14.8159 2.45412 14.7103 2.3484 14.5832 2.27498C14.4565 2.20184 14.3128 2.16333 14.1665 2.16333C14.0202 2.16333 13.8765 2.20184 13.7498 2.27498L11.2498 3.70831L8.74984 2.27498C8.62316 2.20184 8.47946 2.16333 8.33318 2.16333C8.1869 2.16333 8.04319 2.20184 7.91651 2.27498L5.41651 3.70831L2.91651 2.27498C2.78983 2.20184 2.64612 2.16333 2.49984 2.16333C2.35356 2.16333 2.20986 2.20184 2.08318 2.27498C1.95601 2.3484 1.8505 2.45412 1.77733 2.58143C1.70416 2.70875 1.66593 2.85313 1.66651 2.99998V16.3333C1.66651 16.9964 1.9299 17.6322 2.39874 18.1011C2.86758 18.5699 3.50347 18.8333 4.16651 18.8333H15.8332C16.4962 18.8333 17.1321 18.5699 17.6009 18.1011C18.0698 17.6322 18.3332 16.9964 18.3332 16.3333V11.3333C18.3332 11.1123 18.2454 10.9003 18.0891 10.7441C17.9328 10.5878 17.7209 10.5 17.4998 10.5ZM4.16651 17.1666C3.9455 17.1666 3.73354 17.0788 3.57726 16.9226C3.42097 16.7663 3.33318 16.5543 3.33318 16.3333V4.44164L4.99984 5.39164C5.12846 5.45882 5.27141 5.4939 5.41651 5.4939C5.56161 5.4939 5.70456 5.45882 5.83318 5.39164L8.33318 3.95831L10.8332 5.39164C10.9618 5.45882 11.1047 5.4939 11.2498 5.4939C11.3949 5.4939 11.5379 5.45882 11.6665 5.39164L13.3332 4.44164V16.3333C13.3354 16.6176 13.3862 16.8994 13.4832 17.1666H4.16651ZM16.6665 16.3333C16.6665 16.5543 16.5787 16.7663 16.4224 16.9226C16.2662 17.0788 16.0542 17.1666 15.8332 17.1666C15.6122 17.1666 15.4002 17.0788 15.2439 16.9226C15.0876 16.7663 14.9998 16.5543 14.9998 16.3333V12.1666H16.6665V16.3333Z" fill="#FF7A2E"/>
</svg>
