<svg width="20" height="21" viewBox="0 0 20 21" fill="none" xmlns="http://www.w3.org/2000/svg">
<g clip-path="url(#clip0_163_7697)">
<path d="M0 1.125C0 0.95924 0.065848 0.800269 0.183058 0.683058C0.300269 0.565848 0.45924 0.5 0.625 0.5H4.375C4.54076 0.5 4.69973 0.565848 4.81694 0.683058C4.93415 0.800269 5 0.95924 5 1.125C5 1.29076 4.93415 1.44973 4.81694 1.56694C4.69973 1.68415 4.54076 1.75 4.375 1.75H1.25V4.875C1.25 5.04076 1.18415 5.19973 1.06694 5.31694C0.949732 5.43415 0.79076 5.5 0.625 5.5C0.45924 5.5 0.300269 5.43415 0.183058 5.31694C0.065848 5.19973 0 5.04076 0 4.875V1.125ZM15 1.125C15 0.95924 15.0658 0.800269 15.1831 0.683058C15.3003 0.565848 15.4592 0.5 15.625 0.5H19.375C19.5408 0.5 19.6997 0.565848 19.8169 0.683058C19.9342 0.800269 20 0.95924 20 1.125V4.875C20 5.04076 19.9342 5.19973 19.8169 5.31694C19.6997 5.43415 19.5408 5.5 19.375 5.5C19.2092 5.5 19.0503 5.43415 18.9331 5.31694C18.8158 5.19973 18.75 5.04076 18.75 4.875V1.75H15.625C15.4592 1.75 15.3003 1.68415 15.1831 1.56694C15.0658 1.44973 15 1.29076 15 1.125ZM0.625 15.5C0.79076 15.5 0.949732 15.5658 1.06694 15.6831C1.18415 15.8003 1.25 15.9592 1.25 16.125V19.25H4.375C4.54076 19.25 4.69973 19.3158 4.81694 19.4331C4.93415 19.5503 5 19.7092 5 19.875C5 20.0408 4.93415 20.1997 4.81694 20.3169C4.69973 20.4342 4.54076 20.5 4.375 20.5H0.625C0.45924 20.5 0.300269 20.4342 0.183058 20.3169C0.065848 20.1997 0 20.0408 0 19.875V16.125C0 15.9592 0.065848 15.8003 0.183058 15.6831C0.300269 15.5658 0.45924 15.5 0.625 15.5ZM19.375 15.5C19.5408 15.5 19.6997 15.5658 19.8169 15.6831C19.9342 15.8003 20 15.9592 20 16.125V19.875C20 20.0408 19.9342 20.1997 19.8169 20.3169C19.6997 20.4342 19.5408 20.5 19.375 20.5H15.625C15.4592 20.5 15.3003 20.4342 15.1831 20.3169C15.0658 20.1997 15 20.0408 15 19.875C15 19.7092 15.0658 19.5503 15.1831 19.4331C15.3003 19.3158 15.4592 19.25 15.625 19.25H18.75V16.125C18.75 15.9592 18.8158 15.8003 18.9331 15.6831C19.0503 15.5658 19.2092 15.5 19.375 15.5ZM5 5.5H6.25V6.75H5V5.5Z" fill="#FF7A2E"/>
<path d="M8.75 3H2.5V9.25H8.75V3ZM3.75 4.25H7.5V8H3.75V4.25ZM6.25 14.25H5V15.5H6.25V14.25Z" fill="#FF7A2E"/>
<path d="M8.75 11.75H2.5V18H8.75V11.75ZM3.75 13H7.5V16.75H3.75V13ZM13.75 5.5H15V6.75H13.75V5.5Z" fill="#FF7A2E"/>
<path d="M11.25 3H17.5V9.25H11.25V3ZM12.5 4.25V8H16.25V4.25H12.5ZM10 10.5V13H11.25V14.25H10V15.5H12.5V13H13.75V15.5H15V14.25H17.5V13H13.75V10.5H10ZM12.5 13H11.25V11.75H12.5V13ZM17.5 15.5H16.25V16.75H13.75V18H17.5V15.5ZM12.5 18V16.75H10V18H12.5Z" fill="#FF7A2E"/>
<path d="M15 11.75H17.5V10.5H15V11.75Z" fill="#FF7A2E"/>
</g>
<defs>
<clipPath id="clip0_163_7697">
<rect width="20" height="20" fill="white" transform="translate(0 0.5)"/>
</clipPath>
</defs>
</svg>
