<svg width="24" height="24" viewBox="0 0 24 24" fill="none" xmlns="http://www.w3.org/2000/svg">
<path d="M21.4247 5.22478C21.5374 5.11211 21.6007 4.95931 21.6007 4.79998C21.6007 4.64065 21.5374 4.48784 21.4247 4.37518C21.312 4.26251 21.1592 4.19922 20.9999 4.19922C20.8406 4.19922 20.6878 4.26251 20.5751 4.37518L18.5999 6.35158L17.8247 5.57518C17.712 5.46251 17.5592 5.39922 17.3999 5.39922C17.2406 5.39922 17.0878 5.46251 16.9751 5.57518C16.8624 5.68784 16.7991 5.84065 16.7991 5.99998C16.7991 6.15931 16.8624 6.31211 16.9751 6.42478L18.1751 7.62478C18.2308 7.68065 18.297 7.72498 18.3699 7.75523C18.4428 7.78548 18.521 7.80105 18.5999 7.80105C18.6788 7.80105 18.757 7.78548 18.8299 7.75523C18.9028 7.72498 18.969 7.68065 19.0247 7.62478L21.4247 5.22478ZM3.2999 5.39998C3.06121 5.39998 2.83229 5.4948 2.66351 5.66358C2.49472 5.83236 2.3999 6.06128 2.3999 6.29998C2.3999 6.53867 2.49472 6.76759 2.66351 6.93637C2.83229 7.10516 3.06121 7.19998 3.2999 7.19998H13.4999C13.7386 7.19998 13.9675 7.10516 14.1363 6.93637C14.3051 6.76759 14.3999 6.53867 14.3999 6.29998C14.3999 6.06128 14.3051 5.83236 14.1363 5.66358C13.9675 5.4948 13.7386 5.39998 13.4999 5.39998H3.2999ZM3.2999 11.4C3.06121 11.4 2.83229 11.4948 2.66351 11.6636C2.49472 11.8324 2.3999 12.0613 2.3999 12.3C2.3999 12.5387 2.49472 12.7676 2.66351 12.9364C2.83229 13.1052 3.06121 13.2 3.2999 13.2H13.4999C13.7386 13.2 13.9675 13.1052 14.1363 12.9364C14.3051 12.7676 14.3999 12.5387 14.3999 12.3C14.3999 12.0613 14.3051 11.8324 14.1363 11.6636C13.9675 11.4948 13.7386 11.4 13.4999 11.4H3.2999ZM2.3999 18.3C2.3999 18.0613 2.49472 17.8324 2.66351 17.6636C2.83229 17.4948 3.06121 17.4 3.2999 17.4H13.4999C13.7386 17.4 13.9675 17.4948 14.1363 17.6636C14.3051 17.8324 14.3999 18.0613 14.3999 18.3C14.3999 18.5387 14.3051 18.7676 14.1363 18.9364C13.9675 19.1052 13.7386 19.2 13.4999 19.2H3.2999C3.06121 19.2 2.83229 19.1052 2.66351 18.9364C2.49472 18.7676 2.3999 18.5387 2.3999 18.3ZM19.0247 14.2248L21.4247 11.8248C21.5374 11.7121 21.6007 11.5593 21.6007 11.4C21.6007 11.2406 21.5374 11.0878 21.4247 10.9752C21.312 10.8625 21.1592 10.7992 20.9999 10.7992C20.8406 10.7992 20.6878 10.8625 20.5751 10.9752L18.5999 12.9516L17.8247 12.1752C17.712 12.0625 17.5592 11.9992 17.3999 11.9992C17.2406 11.9992 17.0878 12.0625 16.9751 12.1752C16.8624 12.2878 16.7991 12.4406 16.7991 12.6C16.7991 12.7593 16.8624 12.9121 16.9751 13.0248L18.1751 14.2248C18.2308 14.2807 18.297 14.325 18.3699 14.3552C18.4428 14.3855 18.521 14.401 18.5999 14.401C18.6788 14.401 18.757 14.3855 18.8299 14.3552C18.9028 14.325 18.969 14.2807 19.0247 14.2248ZM21.4247 17.8248L19.0247 20.2248C18.969 20.2807 18.9028 20.325 18.8299 20.3552C18.757 20.3855 18.6788 20.4011 18.5999 20.4011C18.521 20.4011 18.4428 20.3855 18.3699 20.3552C18.297 20.325 18.2308 20.2807 18.1751 20.2248L16.9751 19.0248C16.8624 18.9121 16.7991 18.7593 16.7991 18.6C16.7991 18.4406 16.8624 18.2878 16.9751 18.1752C17.0878 18.0625 17.2406 17.9992 17.3999 17.9992C17.5592 17.9992 17.712 18.0625 17.8247 18.1752L18.5999 18.9516L20.5751 16.9752C20.6878 16.8625 20.8406 16.7992 20.9999 16.7992C21.1592 16.7992 21.312 16.8625 21.4247 16.9752C21.5374 17.0878 21.6007 17.2406 21.6007 17.4C21.6007 17.5593 21.5374 17.7121 21.4247 17.8248V17.8248Z" fill="black"/>
</svg>
